<?xml version="1.0" encoding="UTF-8" standalone="no"?>
<svg
   xmlns:dc="http://purl.org/dc/elements/1.1/"
   xmlns:cc="http://creativecommons.org/ns#"
   xmlns:rdf="http://www.w3.org/1999/02/22-rdf-syntax-ns#"
   xmlns:svg="http://www.w3.org/2000/svg"
   xmlns="http://www.w3.org/2000/svg"
   xmlns:inkscape="http://www.inkscape.org/namespaces/inkscape"
   viewBox="0 0 277.97223 96.992569"
   version="1.1"
   id="svg54"
   width="277.97223"
   height="96.992569"
   inkscape:version="0.92.2 5c3e80d, 2017-08-06">
  <title
     id="title6">integration-tile</title>
  <path
     class="a"
     d="m 157.12222,18.485575 h -18.65 v 5.54 h 13.26 c -0.66,7.78 -7.13,11.08 -13.23,11.08 a 14.57,14.57 0 0 1 -14.67,-14.52 v 0 -0.25 a 14.6,14.6 0 0 1 14.64,-14.8500001 14.39,14.39 0 0 1 10,4.06 l 3.88,-4 a 19.74,19.74 0 0 0 -14.06,-5.54000004 20.38,20.38 0 1 0 0.29,40.74000014 c 10.89,-0.02 18.89,-7.49 18.89,-18.54 a 16.61,16.61 0 0 0 -0.34,-3.68 v 0 z"
     id="path8"
     style="fill:#ffffff" />
  <path
     class="a"
     d="m 172.47222,14.485575 a 12.94,12.94 0 0 0 -13.2,12.72 v 0 0.28 a 13.155214,13.155214 0 0 0 26.31,0.15 c 0,-8.68 -6.81,-13.15 -13.11,-13.15 z m 0.07,5.16 c 3.77,0 7.34,3 7.34,8 0,5 -3.56,7.94 -7.36,7.94 -4.18,0 -7.48,-3.35 -7.48,-8 0,-4.65 3.25,-7.92 7.49,-7.92 z"
     id="path10"
     style="fill:#ffffff" />
  <path
     class="a"
     d="m 201.07222,14.485575 a 12.94,12.94 0 0 0 -13.16,12.72 v 0 0.28 a 13.155214,13.155214 0 0 0 26.31,0.15 c 0,-8.67 -6.82,-13.14 -13.14,-13.14 v 0 z m 0.08,5.16 c 3.77,0 7.34,3 7.34,8 0,5 -3.56,7.94 -7.36,7.94 -4.18,0 -7.48,-3.35 -7.48,-8 0,-4.65 3.25,-7.92 7.49,-7.92 z"
     id="path12"
     style="fill:#ffffff" />
  <path
     class="a"
     d="m 229.15222,14.485575 c -7,0 -12.57,6.16 -12.57,13.09 a 12.92,12.92 0 0 0 12.45,13.11 8.65,8.65 0 0 0 7.18,-3.2 v 2.59 c 0,4.52 -2.74,7.24 -6.88,7.24 a 7.28,7.28 0 0 1 -6.7,-4.66 l -5,2.08 c 1.75,3.75 5.34,7.75 11.74,7.75 7,0 12.35,-4.41 12.35,-13.65 v -23.55 h -5.51 v 2.2 a 9.26,9.26 0 0 0 -7.06,-3 z m 0.51,5.11 c 3.45,0 7,2.95 7,8 0,5.05 -3.54,7.89 -7.08,7.89 -3.75,0 -7.24,-3 -7.24,-7.88 0,-5 3.63,-8 7.33,-8 v 0 z"
     id="path14"
     style="fill:#ffffff" />
  <path
     class="a"
     d="m 266.12222,14.485575 c -6.64,0 -12.22,5.28 -12.22,13.08 a 12.67,12.67 0 0 0 12.85,13.12 13.28,13.28 0 0 0 11,-5.75 l -4.53,-3 a 7.31,7.31 0 0 1 -6.39,3.6 6.73,6.73 0 0 1 -6.42,-4 l 17.56,-7.28 -0.91,-2.13 a 11.86,11.86 0 0 0 -10.92,-7.64 v 0 z m 0.23,5 a 5.23,5.23 0 0 1 4.85,2.8 l -11.73,4.92 c -0.51,-3.8 3.09,-7.7 6.88,-7.7 v 0 z"
     id="path16"
     style="fill:#ffffff" />
  <path
     class="a"
     d="m 245.53222,39.905575 h 5.77 V 1.3155749 h -5.77 z"
     id="path18"
     style="fill:#ffffff" />
  <path
     class="b"
     d="m 19.262219,81.245575 -18.51999974,-32.08 a 5.54,5.54 0 0 1 0,-5.54 l 18.51999974,-32.08 a 5.54,5.54 0 0 1 4.79,-2.7700001 h 37.06 a 5.54,5.54 0 0 1 4.77,2.7700001 l 18.52,32.08 a 5.54,5.54 0 0 1 0,5.54 l -18.52,32.08 a 5.54,5.54 0 0 1 -4.79,2.77 h -37.05 a 5.54,5.54 0 0 1 -4.78,-2.77 z"
     id="path20"
     style="fill:#ffffff" />
  <path
     class="c"
     d="m 54.142219,36.065575 c 0,0 5.15,12.35 -1.87,19.35 -7.02,7 -19.8,2.52 -19.8,2.52 0,0 19,19.25 26,26.07 h 2.64 a 5.54,5.54 0 0 0 4.79,-2.77 l 12.26,-21.23 z"
     id="path22"
     style="opacity:0.1;isolation:isolate" />
  <path
     class="d"
     d="m 60.222219,61.335575 -5.69,-5.69 a 0.89,0.89 0 0 0 -0.21,-0.16 15.47,15.47 0 1 0 -2.69,2.71 0.89,0.89 0 0 0 0.15,0.2 l 5.69,5.69 a 0.89,0.89 0 0 0 1.26,0 v 0 l 1.49,-1.49 a 0.89,0.89 0 0 0 0,-1.26 z m -18.13,-3.68 a 11.64,11.64 0 1 1 11.64,-11.64 11.64,11.64 0 0 1 -11.64,11.64 z"
     id="path24"
     style="fill:#000000" />
  <path
     class="d"
     d="m 34.652219,45.395575 v 4.81 a 8.56,8.56 0 0 0 3.11,3.16 v -8 z"
     id="path26"
     style="fill:#ffffff" />
  <path
     class="d"
     d="m 34.652219,45.395575 v 4.81 a 8.56,8.56 0 0 0 3.11,3.16 v -8 z"
     id="path28"
     style="fill:#000000" />
  <path
     class="d"
     d="m 40.472219,41.405575 v 13 a 8.58,8.58 0 0 0 3.11,0 v -13 z"
     id="path30"
     style="fill:#ffffff" />
  <path
     class="d"
     d="m 40.472219,41.405575 v 13 a 8.58,8.58 0 0 0 3.11,0 v -13 z"
     id="path32"
     style="fill:#000000" />
  <path
     class="d"
     d="m 49.472219,50.195575 v -2.85 h -3.11 v 6 a 8.56,8.56 0 0 0 3.11,-3.15 z"
     id="path34"
     style="fill:#ffffff" />
  <path
     class="d"
     d="m 49.472219,50.195575 v -2.85 h -3.11 v 6 a 8.56,8.56 0 0 0 3.11,-3.15 z"
     id="path36"
     style="fill:#000000" />
  <path
     class="a"
     d="m 118.59222,88.785575 v -25.3 h 9.16 a 7.37,7.37 0 0 1 5.16,2 6.33,6.33 0 0 1 2.16,4.92 5.34,5.34 0 0 1 -3.43,5.27 v 0.14 a 6.15,6.15 0 0 1 3.11,2.21 5.87,5.87 0 0 1 1.17,3.59 6.67,6.67 0 0 1 -2.24,5.16 7.62,7.62 0 0 1 -5.41,2 h -9.67 z m 3.25,-22.2 v 7.74 h 5.9 a 3.94,3.94 0 0 0 2.9,-1.17 3.76,3.76 0 0 0 0.13,-5.31 l -0.1,-0.1 a 3.74,3.74 0 0 0 -2.79,-1.17 h -6 z m 0,10.79 v 8.3 h 6.54 a 4.17,4.17 0 0 0 4.21,-4.12 c 0,0 0,0 0,0 a 4,4 0 0 0 -1.24,-2.9 4.22,4.22 0 0 0 -3.11,-1.24 h -6.41 z"
     id="path38"
     style="fill:#ffffff" />
  <path
     class="a"
     d="m 143.24222,65.485575 a 2.29,2.29 0 1 1 -0.67,-1.63 2.22,2.22 0 0 1 0.67,1.63 z m -0.67,6 v 17.32 h -3.25 v -17.32 z"
     id="path40"
     style="fill:#ffffff" />
  <path
     class="a"
     d="m 154.31222,96.985575 a 9.68,9.68 0 0 1 -2.72,-0.37 8.81,8.81 0 0 1 -2.32,-1 7.49,7.49 0 0 1 -1.8,-1.63 6.7,6.7 0 0 1 -1.13,-2 l 3.08,-1.28 a 4.87,4.87 0 0 0 1.84,2.44 5.15,5.15 0 0 0 3,0.92 5.38,5.38 0 0 0 4.14,-1.59 6.17,6.17 0 0 0 1.49,-4.38 v -1.71 h -0.14 a 6.39,6.39 0 0 1 -2.49,2.17 7.46,7.46 0 0 1 -3.41,0.8 7.67,7.67 0 0 1 -5.84,-2.65 9.59,9.59 0 0 1 -2.41,-6.56 9.46,9.46 0 0 1 2.4,-6.54 7.62,7.62 0 0 1 5.84,-2.69 7.45,7.45 0 0 1 3.41,0.8 6.39,6.39 0 0 1 2.49,2.17 h 0.14 v -2.4 h 3.11 v 16.58 a 8.85,8.85 0 0 1 -2.37,6.54 8.64,8.64 0 0 1 -6.31,2.38 z m 0.11,-10.61 a 5,5 0 0 0 3.92,-1.73 7.18,7.18 0 0 0 0,-9 5,5 0 0 0 -3.92,-1.77 5.07,5.07 0 0 0 -3.92,1.77 6.46,6.46 0 0 0 -1.59,4.51 6.39,6.39 0 0 0 1.59,4.49 5.07,5.07 0 0 0 3.92,1.76 z"
     id="path42"
     style="fill:#ffffff" />
  <path
     class="a"
     d="m 196.77222,88.825575 -2.56,1.66 -1.74,-2.58 a 13.72,13.72 0 0 1 -6.08,1.45 12.46,12.46 0 0 1 -9.26,-3.83 13.67,13.67 0 0 1 0,-18.81 13.1,13.1 0 0 1 18.53,0 12.78,12.78 0 0 1 3.75,9.37 13.5,13.5 0 0 1 -1.15,5.54 13.21,13.21 0 0 1 -3.24,4.52 z m -10.36,-2.58 a 9.58,9.58 0 0 0 4.26,-1 l -3,-4.46 2.56,-1.73 2.93,4.42 a 9.74,9.74 0 0 0 2.9,-7.35 9.86,9.86 0 0 0 -2.79,-7.24 9.18,9.18 0 0 0 -6.89,-2.86 9.29,9.29 0 0 0 -6.93,2.86 10.89,10.89 0 0 0 0,14.48 9.29,9.29 0 0 0 6.96,2.88 z"
     id="path44"
     style="fill:#ffffff" />
  <path
     class="a"
     d="m 217.91222,88.785575 h -3.11 v -2.4 h -0.14 a 5.78,5.78 0 0 1 -2.28,2.13 6.54,6.54 0 0 1 -3.2,0.85 6.41,6.41 0 0 1 -4.9,-1.82 7.22,7.22 0 0 1 -1.7,-5.18 v -10.88 h 3.25 v 10.67 q 0.11,4.26 4.26,4.26 a 4.07,4.07 0 0 0 3.24,-1.58 5.7,5.7 0 0 0 1.31,-3.77 v -9.58 h 3.25 v 17.3 z"
     id="path46"
     style="fill:#ffffff" />
  <path
     class="a"
     d="m 229.47222,89.355575 a 8.29,8.29 0 0 1 -6.29,-2.62 9.24,9.24 0 0 1 -2.47,-6.61 9.41,9.41 0 0 1 2.42,-6.59 8.65,8.65 0 0 1 12.29,-0.14 9.84,9.84 0 0 1 2.28,7 v 0.35 h -13.67 a 5.64,5.64 0 0 0 1.7,4.1 5.48,5.48 0 0 0 8.77,-1.55 l 2.9,1.41 a 8.64,8.64 0 0 1 -3.23,3.43 9,9 0 0 1 -4.7,1.22 z m -5.2,-11.31 h 9.93 a 4.32,4.32 0 0 0 -1.47,-3 5.14,5.14 0 0 0 -3.55,-1.18 4.72,4.72 0 0 0 -3.16,1.13 5.41,5.41 0 0 0 -1.75,3.04 z"
     id="path48"
     style="fill:#ffffff" />
  <path
     class="a"
     d="m 243.90222,88.785575 h -3.25 v -17.3 h 3.11 v 2.83 h 0.14 a 4.69,4.69 0 0 1 2,-2.35 5.64,5.64 0 0 1 3,-1 6.1,6.1 0 0 1 2.4,0.43 l -1,3.15 a 5.4,5.4 0 0 0 -1.91,-0.25 4.21,4.21 0 0 0 -3.2,1.49 5,5 0 0 0 -1.36,3.46 v 9.55 z"
     id="path50"
     style="fill:#ffffff" />
  <path
     class="a"
     d="m 269.32222,71.485575 -10.83,25 h -3.36 l 4,-8.73 -7.12,-16.27 h 3.54 l 5.16,12.45 h 0.07 l 5,-12.45 h 3.51 z"
     id="path52"
     style="fill:#ffffff" />
</svg>
